HIERARCHY
ROOT Hips
{
	OFFSET 40.668713 100.492722 45.321842
	CHANNELS 6 Xposition Yposition Zposition Xrotation Yrotation Zrotation
	JOINT Chest
	{
		OFFSET -1.648991 13.538048 -0.395473
		CHANNELS 3 Xrotation Yrotation Zrotation
		JOINT Chest2
		{
			OFFSET -1.478477 21.103813 3.392605
			CHANNELS 3 Xrotation Yrotation Zrotation
			JOINT Chest3
			{
				OFFSET -1.196571 14.873505 0.408394
				CHANNELS 3 Xrotation Yrotation Zrotation
				JOINT Neck
				{
					OFFSET -1.266041 17.208923 0.930550
					CHANNELS 3 Xrotation Yrotation Zrotation
					JOINT Head
					{
						OFFSET 3.431087 8.706635 4.716965
						CHANNELS 3 Xrotation Yrotation Zrotation
						End Site
						{
							OFFSET 3.384552 8.746323 4.676994
						}
					}
				}
				JOINT LeftCollar
				{
					OFFSET 3.704624 13.654816 -1.275242
					CHANNELS 3 Xrotation Yrotation Zrotation
					JOINT LeftUpArm
					{
						OFFSET 5.839565 7.609680 -14.713650
						CHANNELS 3 Xrotation Yrotation Zrotation
						JOINT LeftLowArm
						{
							OFFSET 31.293961 9.777954 8.050278
							CHANNELS 3 Xrotation Yrotation Zrotation
							JOINT LeftHand
							{
								OFFSET 20.607498 6.930328 20.694160
								CHANNELS 3 Xrotation Yrotation Zrotation
								End Site
								{
									OFFSET 4.503883 1.514709 4.522823
								}
							}
						}
					}
				}
				JOINT RightCollar
				{
					OFFSET -0.789055 12.941483 5.805515
					CHANNELS 3 Xrotation Yrotation Zrotation
					JOINT RightUpArm
					{
						OFFSET -9.454926 4.885254 13.972649
						CHANNELS 3 Xrotation Yrotation Zrotation
						JOINT RightLowArm
						{
							OFFSET 23.164833 7.231888 23.469643
							CHANNELS 3 Xrotation Yrotation Zrotation
							JOINT RightHand
							{
								OFFSET 24.688530 12.530853 11.593468
								CHANNELS 3 Xrotation Yrotation Zrotation
								End Site
								{
									OFFSET 5.395912 2.738770 2.533867
								}
							}
						}
					}
				}
			}
		}
	}
	JOINT LeftUpLeg
	{
		OFFSET 6.898598 0.628540 -7.241093
		CHANNELS 3 Xrotation Yrotation Zrotation
		JOINT LeftLowLeg
		{
			OFFSET 14.031101 -45.186432 2.302906
			CHANNELS 3 Xrotation Yrotation Zrotation
			JOINT LeftFoot
			{
				OFFSET -5.814877 -43.242813 -9.839411
				CHANNELS 3 Xrotation Yrotation Zrotation
				JOINT LeftToe
				{
					OFFSET 13.341183 -15.608749 11.744761
					CHANNELS 3 Xrotation Yrotation Zrotation
					End Site
					{
						OFFSET 17.935585 -0.784567 15.403187
					}
				}
			}
		}
	}
	JOINT RightUpLeg
	{
		OFFSET -6.898575 -0.628738 7.241100
		CHANNELS 3 Xrotation Yrotation Zrotation
		JOINT RightLowLeg
		{
			OFFSET 22.255302 -33.322014 25.265724
			CHANNELS 3 Xrotation Yrotation Zrotation
			JOINT RightFoot
			{
				OFFSET -11.976189 -37.997185 -20.331375
				CHANNELS 3 Xrotation Yrotation Zrotation
				JOINT RightToe
				{
					OFFSET 2.521671 -23.419363 2.175175
					CHANNELS 3 Xrotation Yrotation Zrotation
					End Site
					{
						OFFSET 9.306534 -16.105337 14.613789
					}
				}
			}
		}
	}
}
MOTION
Frames: 5
Frame Time: 0.033333
-0.161373 106.130455 -1.111713 4.107914 -46.269320 -5.207676 -14.043621 -4.718850 6.391090 4.649337 -1.338911 2.853337 -1.047897 -7.487291 0.176677 -18.522452 6.342601 20.690026 -0.000003 0.000003 -0.000001 -19.874937 21.804587 -6.519021 -29.037429 35.288852 24.053765 -11.715089 27.679408 0.358435 0.000003 -0.000005 0.000005 22.773645 -25.618950 18.298456 7.994287 -43.413393 17.164679 5.792435 -20.568488 -9.024853 0.000001 0.000000 -0.000000 6.919120 -2.678663 -5.319871 -13.472406 1.139000 17.983709 5.325478 -4.051252 0.410947 0.000000 -0.000002 0.000001 25.839417 -4.561445 -28.441910 -45.497546 -31.766076 33.067077 -13.599560 16.540329 25.612453 0.000002 0.000002 0.000002 
-115.488113 110.562767 -1.105057 9.749351 42.341087 -16.429325 -11.234613 -2.426102 8.629894 5.281745 -1.999644 1.275384 -2.163369 -3.818241 -1.574857 -19.716922 -6.472405 28.416976 0.000001 0.000003 -0.000003 -34.800364 23.798165 -16.085577 -4.837471 57.255720 -44.591846 8.123875 20.678410 -7.456915 -0.000003 -0.000001 0.000002 45.469829 -16.521746 31.856094 59.048461 -48.180609 12.677767 5.130410 -4.090611 -21.782599 0.000002 0.000002 -0.000002 5.740461 0.618194 -1.479254 -12.903257 1.277584 14.941228 3.894755 7.910949 3.645920 0.000000 0.000001 -0.000000 23.829236 -5.268828 -23.302616 -41.992693 -32.192474 31.200430 -10.166960 11.376172 27.088935 0.000001 0.000003 0.000001 
-115.489365 110.561813 -1.108841 10.182966 42.225763 -16.435920 -11.520221 -2.396037 8.303047 4.899279 -1.905761 1.452566 -1.732415 -3.912279 -1.542686 -19.747880 -6.440281 28.374197 0.000000 0.000002 0.000002 -34.866535 23.759032 -16.155781 -5.032731 57.332212 -44.364787 8.175088 20.616028 -7.688120 0.000003 0.000000 0.000001 45.425269 -16.548170 31.920165 59.377935 -48.148968 12.842975 5.253230 -4.177271 -21.693589 -0.000003 0.000005 -0.000002 5.644999 0.585924 -1.596969 -13.107506 1.321917 14.960606 3.964148 7.853941 3.590776 0.000000 -0.000009 0.000001 23.556971 -5.384798 -23.466378 -42.048721 -32.229791 31.052007 -9.888140 11.915496 27.483788 0.000002 0.000005 0.000001 
-115.492401 110.562408 -1.110123 10.383039 42.391607 -16.323071 -11.667205 -2.349615 7.921573 4.977466 -2.087927 1.866109 -1.764380 -3.935937 -1.748944 -19.552868 -6.457105 28.254339 -0.000002 0.000004 -0.000000 -34.799691 23.561907 -16.361530 -5.060065 57.391744 -44.342930 8.367765 20.653915 -8.051782 0.000007 -0.000003 0.000003 45.384411 -16.563885 31.936414 59.381719 -48.133183 12.896933 5.370155 -4.225513 -21.817511 0.000001 -0.000004 0.000002 5.486089 0.518691 -1.818170 -13.042200 1.456970 14.919259 3.942524 7.720017 3.557994 -0.000001 -0.000002 -0.000001 23.287964 -5.592999 -23.763251 -41.622500 -32.172643 31.281488 -10.079642 11.703587 27.420918 0.000006 0.000002 -0.000002 
-115.488510 110.559006 -1.110138 10.241516 42.334510 -16.332820 -11.835183 -2.378639 7.932073 5.179213 -2.209425 1.971711 -1.794153 -3.729401 -1.769212 -19.737978 -6.378776 28.301577 0.000001 0.000003 -0.000000 -34.832175 23.641136 -16.245537 -4.941924 57.424180 -44.503942 8.440116 20.540192 -7.969109 0.000001 0.000000 -0.000002 45.360321 -16.524067 31.836376 59.499588 -48.183122 12.876241 5.139384 -4.082258 -21.821037 0.000001 -0.000002 -0.000002 5.513351 0.523036 -1.730373 -12.966952 1.576445 14.865398 3.858101 7.737996 3.807550 -0.000000 -0.000004 -0.000000 23.491092 -5.512086 -23.640545 -41.650487 -32.261159 31.160887 -10.224397 11.580535 27.420471 0.000004 0.000001 0.000001 
